PathFileType	4	(X/Y/Z)	C:\Users\°ÂÌØÂü\Desktop\20210112\bx_y_0_502-Unnamed.trc
DataRate	CameraRate	NumFrames	NumMarkers	Units	OrigDataRate	OrigDataStartFrame	OrigNumFrames
50.00	50.00	       6	0	mm	50.00	491	       560
Frame#	Time	
		

491	9.800	-715.20654	114.37318	1850.56824	-723.73621	299.36758	1534.56616	-643.73242	287.74551	879.59558	-584.35693	5.86383	807.93536	-797.38293	103.23851	1051.09119	-729.69781	252.24680	640.16046	-592.04388	227.28087	1074.49756	-676.18121	210.48827	534.03693	-771.79718	255.67279	502.88962	-663.15442	-66.78178	163.65160	-517.73413	-72.62297	143.00145	-678.58765	84.44860	574.13110	-604.40662	20.55646	166.26808	-675.89404	54.96945	157.33220	-711.15466	152.42155	216.23610	-796.31549	172.10538	184.28162	-771.78516	222.91389	205.36017	-594.71985	221.70377	173.32910	-882.57434	296.15549	144.64362	-559.45038	258.14319	165.96913	-666.88379	299.17010	160.12152	-629.22040	305.63748	162.40990	-528.05426	304.57660	146.69742	-704.13690	-65.29534	1542.22876	-583.83533	223.16876	817.35797	-765.77081	-5.56020	209.06660	-794.93536	54.86631	174.44347	-753.52484	-30.95376	489.71841	-559.92889	-36.85492	164.37674	-876.02838	-78.54763	141.55200	-599.87805	0.96885	1054.01404	-694.80994	-24.10125	613.57947	-704.46277	-21.04292	567.60846	-675.64069	174.13382	157.68219	-621.93750	-76.77737	159.70517	-675.19141	-48.09354	734.28845	-689.22845	148.47731	575.21466	-653.30219	-65.24612	867.10956	-732.65472	248.38055	575.99969	-656.83386	23.26362	518.64111	-715.73627	78.22640	215.54326	
492	9.820	-714.25714	114.59786	1850.43530	-722.85028	299.55246	1534.43506	-643.43988	287.78613	879.39819	-584.35602	5.89256	807.74628	-796.99670	103.46375	1050.98730	-729.27203	252.04941	639.89893	-591.56482	227.04767	1073.93506	-676.18616	210.43832	534.10986	-771.78149	255.78804	503.00784	-663.09296	-66.79612	163.73010	-517.80225	-72.65575	143.12508	-678.69110	84.69305	573.93085	-604.30225	20.47935	166.12526	-675.81012	54.79800	157.00142	-711.25873	152.55849	216.19110	-796.31549	172.10538	184.28162	-771.72144	222.76253	205.32379	-594.69324	221.74910	173.35692	-882.50659	296.28424	144.83293	-559.43420	258.28955	165.87468	-667.02765	299.10437	160.06143	-629.23627	305.78870	162.38785	-528.17041	304.65869	146.84264	-703.60004	-65.35392	1542.13538	-583.66901	223.03639	816.95282	-765.80048	-5.41017	209.16814	-794.96118	54.97799	174.49658	-753.66431	-30.65948	489.66623	-559.66705	-37.03704	164.56895	-876.03320	-78.59757	141.50241	-598.94733	1.01875	1054.22961	-694.85413	-24.16208	613.75153	-704.58502	-21.15544	567.65161	-675.64069	174.13382	157.68219	-621.99567	-76.73991	159.64072	-675.19141	-48.09354	734.28845	-688.78802	148.20851	575.21277	-653.07123	-65.28562	867.07397	-732.26105	248.19173	575.75409	-656.67920	23.24983	518.86536	-715.79010	78.29642	215.50259	
493	9.840	-713.45770	114.62000	1850.45618	-722.36664	299.63608	1534.36829	-643.05597	287.37463	879.56519	-584.20264	5.91780	807.67505	-796.46289	103.10078	1051.16760	-729.05750	252.25223	640.12195	-591.06433	227.08047	1074.05835	-675.83960	210.20497	533.97180	-771.72241	255.58568	502.90710	-663.09491	-66.72513	163.67242	-517.72980	-72.69471	142.77153	-678.69110	84.69305	573.93085	-604.28394	20.59787	166.03345	-675.75458	54.99820	157.22641	-711.25873	152.55849	216.19110	-796.24231	172.02353	184.21338	-771.42212	222.89595	204.97069	-594.69324	221.74910	173.35692	-882.54901	296.33197	144.83435	-559.47125	258.15106	166.15517	-666.86981	299.11282	160.22900	-629.08362	305.69690	162.71698	-528.11969	304.63617	146.75458	-702.77148	-65.22526	1542.36145	-583.04437	222.91096	816.82678	-765.93048	-5.37477	209.09291	-794.82666	54.73484	174.77245	-754.06415	-30.60631	489.72589	-559.84650	-37.13209	164.62494	-875.85663	-78.57385	141.70607	-598.16327	0.54085	1054.00916	-694.90216	-24.08697	613.71924	-704.76202	-20.95250	567.48053	-675.77997	174.22372	157.54211	-621.93750	-76.77737	159.70517	-675.09601	-48.11312	734.46552	-689.01294	148.40784	575.13818	-653.03607	-65.03696	866.91803	-731.86450	248.61993	576.13922	-656.95245	23.22121	518.59552	-715.79010	78.29642	215.50259	
494	9.860	-712.53241	114.90726	1850.45251	-721.50244	299.55231	1534.40491	-642.51678	287.31262	879.35895	-584.10358	5.91616	807.40277	-795.90356	103.18597	1051.40906	-728.90875	252.16307	640.12091	-590.73621	227.18196	1073.81763	-675.76257	210.23087	534.02545	-771.55597	255.62846	502.79077	-663.13977	-66.80055	163.66017	-517.68134	-72.46423	143.05693	-679.02551	84.83430	573.82367	-604.11243	20.62920	166.12697	-675.75458	54.99820	157.22641	-711.25873	152.55849	216.19110	-796.22522	172.03928	184.27650	-771.60266	222.70366	205.23984	-594.69324	221.74910	173.35692	-882.44672	296.15918	144.79175	-559.37988	258.10419	166.14175	-666.84381	299.07587	160.23283	-629.17542	305.75195	162.46748	-528.03156	304.52658	146.55516	-702.12695	-64.89917	1542.35876	-582.65839	222.96545	816.74072	-765.84521	-5.31111	209.20908	-794.91034	54.81697	174.69191	-754.15930	-30.48133	489.73251	-559.11682	-37.55650	164.93126	-875.90167	-78.49648	141.73723	-597.70569	0.41611	1054.01721	-695.78534	-23.48509	613.02502	-705.23132	-20.91500	567.24817	-675.66876	174.38387	157.52495	-621.87158	-76.94614	159.70164	-675.02576	-48.28157	734.51013	-688.84473	148.09467	575.09991	-652.75391	-64.64072	866.97632	-731.86450	248.61993	576.13922	-657.10010	23.38306	518.81769	-715.67627	78.64324	215.56244	
495	9.880	-711.71674	115.23868	1850.60156	-720.68500	299.77097	1534.34644	-642.19769	287.22208	879.36578	-584.03479	5.97540	807.34619	-795.59857	103.10149	1051.53540	-728.79254	252.21101	639.89679	-590.26318	227.03340	1073.72913	-675.62396	210.17477	533.84216	-771.65472	255.68661	503.10187	-662.98169	-66.65010	163.68698	-517.68134	-72.46423	143.05693	-679.03674	84.76034	573.94550	-604.24829	20.44187	166.13165	-675.96338	55.06083	157.21541	-711.25873	152.55849	216.19110	-796.12872	172.09090	184.27321	-771.56323	222.85909	204.91336	-594.59412	221.90724	173.39368	-882.47406	296.15048	144.65424	-559.50629	258.09668	166.05917	-666.84357	299.04272	160.35513	-629.17218	305.71289	162.63173	-528.12799	304.54727	146.78020	-701.44055	-64.82467	1542.12439	-582.53406	222.60126	816.50354	-766.14935	-5.01968	208.65039	-794.91534	54.90619	174.50060	-754.22784	-30.55052	489.80765	-559.79138	-37.17985	164.68480	-876.03320	-78.59757	141.50241	-597.35242	0.35389	1054.07068	-696.10272	-23.22910	613.09723	-705.47083	-20.68273	566.95032	-675.64069	174.13382	157.68219	-621.95721	-76.92482	159.53204	-675.02576	-48.28157	734.51013	-688.84473	148.09467	575.09991				-731.82709	248.50278	575.91370	-657.21881	23.59230	518.91321	-715.72888	78.58614	215.66792	
496	9.900	-710.80145	115.52545	1850.47961	-720.06500	299.87613	1534.53662	-642.04010	287.17661	879.45190	-583.83215	6.24633	807.27393	-795.35913	103.08010	1051.53870	-728.54150	252.13953	639.86023	-590.01788	227.17119	1073.46655	-675.53552	210.02855	533.61957	-771.44879	255.62817	502.95663	-663.03375	-66.65384	163.61449	-517.73883	-72.71621	143.15021	-679.64081	84.70224	574.14423	-604.24829	20.44187	166.13165	-675.79761	55.10177	157.08252	-711.15466	152.42155	216.23610	-796.11835	172.04408	184.33977	-771.52057	222.81889	205.06798	-594.75940	221.59038	173.28394	-882.64960	296.13660	144.65570	-559.38947	258.21021	165.85333	-666.96289	299.11398	160.15097	-629.29004	305.51828	162.35915	-528.16150	304.17200	146.42805	-701.11261	-64.54487	1542.29260	-582.29041	222.63512	816.42194	-766.06781	-5.06738	209.18291	-795.13770	55.10642	174.97762	-754.53705	-30.37313	489.80682	-559.79230	-37.06110	164.40833	-875.98657	-78.65415	141.42352	-596.83594	0.19547	1053.88062	-696.19733	-23.17240	612.88794	-705.74939	-20.73819	567.23273	-675.77997	174.22372	157.54211	-621.93750	-76.77737	159.70517	-675.02576	-48.28157	734.51013	-688.62238	148.26195	575.08612				-731.43060	248.93088	576.29883	-657.72510	23.43345	518.73883	-715.73627	78.22640	215.54326	
